<svg width="157" height="153" viewBox="0 0 157 153" fill="none" xmlns="http://www.w3.org/2000/svg">
<path d="M112.864 1.94121C110.875 4.94325 107.586 7.83568 104.984 11.1263C100.722 16.5178 96.3291 19.4634 89.7858 21.4487C85.3009 20.3739 80.3592 19.794 75.1934 19.794C65.1515 19.794 55.7703 20.5207 49.0097 24.2503C42.2492 27.9799 38.0234 34.8741 38.0234 41.0516C38.1487 54.7225 43.9849 65.1151 51.8761 69.6471C59.7991 74.1504 68.3068 73.408 74.9743 73.408C82.1319 73.408 93.6316 71.1523 101.313 66.6326C111.24 59.0777 112.301 54.7226 112.395 41.0516C112.395 37.0349 110.48 33.3519 107.29 30.2317C107.501 26.7836 108.177 24.2749 109.955 21.5639C112.007 18.4361 115.583 15.1012 120.536 11.0744C123.323 7.87915 124.701 7.1057 120.393 2.60864C116.33 -1.05724 115.372 -0.459071 112.864 1.94121ZM118.313 4.82414C119.136 6.00381 120.086 6.20454 119.648 7.36322C118.17 9.45255 107.505 17.1135 106.014 21.4473C105.355 24.4902 104.714 24.7965 104.194 27.7439C101.779 26.0744 97.6476 23.9243 95.1652 22.9746C104.014 19.0016 110.933 9.97656 115.745 3.50005C116.778 2.82211 117.641 4.34132 118.313 4.82414ZM112.514 8.62034C112.514 8.62034 113.177 9.41555 113.733 9.98592C114.29 10.5561 114.611 10.6418 115.307 9.92896C116.002 9.2161 117.534 8.7014 116.977 8.1311C116.097 7.50223 114.803 6.11291 114.079 6.60068L112.514 8.62034ZM75.1934 23.581C80.3906 23.581 85.2999 24.2751 89.6605 25.4267C92.2704 26.302 96.3943 27.628 98.8982 28.9909C104.831 32.264 108.136 36.5435 108.136 41.0518C108.136 42.5053 107.801 43.9406 107.134 45.316C100.191 38.7939 88.737 33.7621 75.6631 33.7621C68.8928 33.7621 60.9902 34.8636 55.0163 37.5616C50.3539 39.6675 47.009 43.7496 44.9125 47.8301C43.1863 45.7109 42.2821 43.4172 42.2821 41.0518C42.2821 36.5435 44.5735 31.4663 50.5064 28.1932C56.4394 24.9201 65.8657 23.581 75.1934 23.581ZM75.5274 37.8338C87.9948 37.8338 98.8625 42.9651 104.754 48.6893C103.256 50.284 99.0757 52.4957 96.6773 53.8187C90.7444 57.0918 82.1119 59.6526 72.7851 59.7841C63.9519 59.9087 60.5878 59.4973 54.6548 56.2242C53.3497 55.5044 49.0574 51.5963 48.0126 50.7895C49.3299 47.2946 51.7101 43.7083 56.3469 41.6142C61.6462 39.2208 69.271 37.8338 75.5274 37.8338ZM43.2216 51.9351C44.9186 53.571 51.1043 58.9305 53.4245 60.2104C60.185 63.94 64.1848 64.0149 74.2268 64.0149C84.2688 64.0149 94.3923 60.0882 101.153 56.3586C103.266 55.1932 105.155 53.8438 106.758 52.3807C104.895 57.8956 102.92 61.5279 98.7971 63.954C92.1996 67.8357 82.1644 69.9685 75.2931 69.9685C68.9339 69.9685 60.497 70.405 53.6396 66.5072C49.2356 64.0039 45.0066 57.6953 43.2216 51.9351Z" fill="#FFC857"/>
<path d="M0.296509 93.2178C0.296509 129.652 0.296509 129.652 0.296509 129.652C0.296509 129.652 43.7784 131.924 43.5933 111.619C43.4083 91.3139 0.296509 93.2178 0.296509 93.2178Z" fill="#FFC857"/>
<path d="M9.77268 133.504H0.296509V152.652H9.77268V133.504Z" fill="#FFC857"/>
<path d="M73.4496 93.2178L62.926 129.654H72.6491L78.3112 109.849L83.9214 129.654H93.6444L83.351 93.2178H73.4496Z" fill="#FFC857"/>
<path d="M62.1093 133.504H94.5131L99.9613 152.652H56.6644L62.1093 133.504Z" fill="#FFC857"/>
<path d="M113.279 93.2178H123.002L141.151 152.652H131.279H123.147H113.279V93.2178Z" fill="#FFC857"/>
<path d="M156.575 93.2178H146.852V152.652H156.575V93.2178Z" fill="#FFC857"/>
</svg>
