<svg width="394" height="139" viewBox="0 0 394 139" fill="none" xmlns="http://www.w3.org/2000/svg">
<path d="M114.885 32.277C112.71 35.6126 109.113 38.8265 106.268 42.4828C101.607 48.4733 96.8033 51.7463 89.648 53.9522C84.7435 52.7579 79.3396 52.1136 73.6905 52.1136C62.7092 52.1136 52.4505 52.9211 45.0575 57.0651C37.6646 61.2091 33.0436 68.8695 33.0436 75.7335C33.1806 90.9235 39.5627 102.471 48.1921 107.507C56.8562 112.51 66.1597 111.685 73.4509 111.685C81.278 111.685 93.8534 109.179 102.254 104.157C113.109 95.7627 114.269 90.9237 114.372 75.7335C114.372 71.2705 112.278 67.1781 108.79 63.7112C109.02 59.8799 109.759 57.0925 111.704 54.0802C113.948 50.6048 117.859 46.8994 123.275 42.4252C126.323 38.8748 127.829 38.0154 123.118 33.0186C118.675 28.9454 117.628 29.6099 114.885 32.2769V32.277ZM120.844 35.4803C121.744 36.7911 122.783 37.0141 122.303 38.3015C120.687 40.623 109.024 49.1352 107.394 53.9507C106.673 57.3316 105.973 57.672 105.404 60.947C102.763 59.0919 98.2451 56.7029 95.5305 55.6477C105.207 51.2332 112.773 41.2052 118.035 34.0091C119.165 33.2558 120.109 34.9438 120.844 35.4802V35.4803ZM114.502 39.6983C114.502 39.6983 115.227 40.5819 115.835 41.2156C116.444 41.8492 116.796 41.9444 117.556 41.1523C118.317 40.3603 119.991 39.7884 119.383 39.1547C118.42 38.456 117.006 36.9122 116.214 37.4542L114.502 39.6983ZM73.6905 56.3214C79.3739 56.3214 84.7424 57.0927 89.5109 58.3723C92.3649 59.3448 96.8745 60.8182 99.6127 62.3325C106.101 65.9693 109.715 70.7243 109.715 75.7337C109.715 77.3487 109.348 78.9435 108.619 80.4717C101.026 73.2249 88.501 67.6339 74.2041 67.6339C66.8005 67.6339 58.1586 68.8579 51.6259 71.8557C46.5275 74.1956 42.8696 78.7312 40.5771 83.2652C38.6894 80.9106 37.7006 78.3619 37.7006 75.7337C37.7006 70.7243 40.2063 65.083 46.6943 61.4462C53.1822 57.8094 63.4902 56.3214 73.6905 56.3214ZM74.0558 72.1581C87.6894 72.1581 99.5737 77.8596 106.016 84.2199C104.378 85.9917 99.8068 88.4493 97.1841 89.9193C90.6961 93.5562 81.2561 96.4015 71.0569 96.5476C61.3975 96.6861 57.7186 96.229 51.2307 92.5921C49.8035 91.7923 45.1097 87.45 43.9672 86.5534C45.4077 82.6702 48.0105 78.6854 53.0811 76.3585C58.876 73.6992 67.2141 72.1581 74.0558 72.1581ZM38.7279 87.8264C40.5837 89.6441 47.348 95.5992 49.8852 97.0212C57.2782 101.165 61.6521 101.249 72.6335 101.249C83.6148 101.249 94.6853 96.8854 102.078 92.7414C104.389 91.4464 106.455 89.9472 108.208 88.3215C106.171 94.4492 104.011 98.4852 99.5021 101.181C92.2875 105.494 81.3136 107.864 73.7996 107.864C66.8455 107.864 57.6193 108.349 50.1205 104.018C45.3046 101.236 40.6799 94.2267 38.7279 87.8264Z" fill="white"/>
<path d="M158.302 29.4111C158.302 79.2718 158.302 79.2718 158.302 79.2718C158.302 79.2718 213.625 82.3809 213.39 54.5933C213.154 26.8057 158.302 29.4111 158.302 29.4111Z" fill="white"/>
<path d="M170.359 84.5439H158.302V110.748H170.359V84.5439Z" fill="white"/>
<path d="M251.377 29.4111L237.987 79.2749H250.358L257.562 52.1716L264.7 79.2749H277.071L263.975 29.4111H251.377Z" fill="white"/>
<path d="M236.948 84.5438H278.176L285.108 110.748H230.02L236.948 84.5438Z" fill="white"/>
<path d="M302.052 29.4111H314.423L337.515 110.748H324.955L314.609 75.876V110.748H302.052V29.4111Z" fill="white"/>
<path d="M357.14 29.4111H344.769V110.748H357.14V29.4111Z" fill="white"/>
</svg>
